#N canvas 2 167 1366 682 10;
#X declare -lib mrpeach;
#X obj 605 362 dac~;
#X floatatom 370 -155 5 0 0 0 - - -;
#X obj 571 74 phasor~;
#X obj 573 138 *~;
#X obj 362 -110 moses 30;
#X floatatom 317 -60 5 0 0 0 - - -;
#X floatatom 571 -44 5 0 0 0 - - -;
#X floatatom 317 12 5 0 0 0 - - -;
#X floatatom 240 -4 5 0 0 0 - - -;
#X obj 317 -21 moses 10;
#X floatatom 240 47 5 0 0 0 - - -;
#X obj 572 103 lop~;
#X floatatom 240 96 5 0 0 0 - - -;
#X obj 240 21 - 18;
#X obj 571 -17 - 7;
#X obj 571 15 mtof;
#X floatatom 571 43 5 0 0 0 - - -;
#X obj 571 -91 moses 59;
#X obj 632 -64 moses 73;
#X floatatom 804 -216 5 0 0 0 - - -;
#X text 204 138 Filter Control;
#X text 510 51 Bass LH;
#X text 854 -217 Drumz;
#X floatatom 835 -150 5 0 0 0 - - -;
#X obj 802 -186 sel 75;
#X obj 802 -149 bng 15 250 50 0 empty empty empty 17 7 0 10 -262144
-1 -1;
#X obj 873 -187 sel 77;
#X obj 873 -149 bng 15 250 50 0 empty empty empty 17 7 0 10 -262144
-1 -1;
#X floatatom 906 -150 5 0 0 0 - - -;
#X floatatom 825 -11 5 0 0 0 - - -;
#X floatatom 632 -38 5 0 0 0 - - -;
#X obj 634 51 mtof;
#X floatatom 634 74 5 0 0 0 - - -;
#X obj 670 49 mtof;
#X floatatom 672 72 5 0 0 0 - - -;
#X obj 711 45 mtof;
#X floatatom 711 68 5 0 0 0 - - -;
#X obj 711 22 + 7;
#X obj 632 100 osc~;
#X obj 711 95 osc~;
#X obj 671 96 osc~;
#X obj 921 52 line~;
#X obj 920 76 *~;
#X obj 920 99 *~;
#X msg 955 -20 1 2;
#X obj 909 -19 del 2;
#X obj 921 184 *~;
#X obj 921 163 osc~;
#X obj 920 123 *~ 100;
#X obj 920 143 +~ 20;
#X obj 993 -20 unpack 1 2;
#X obj 908 21 pack 1 2;
#X msg 908 0 0;
#X obj 933 -48 t b b l;
#X text 963 80 4th power decay;
#X text 975 165 affects amp and pitch;
#X text 985 33 short line decay;
#X text 973 133 base 20 and sweep 100;
#X obj 317 50 /~ 90;
#X obj 828 95 / 450;
#X obj 619 125 *~;
#X obj 669 124 *~;
#X obj 721 124 *~;
#X obj 909 -461 import mrpeach;
#X obj 1063 -446 udpreceive 7400;
#X obj 1062 -417 unpackOSC;
#X obj 1062 -392 routeOSC /EXP;
#X obj 1061 -364 routeOSC /SMILE;
#X floatatom 1062 -330 5 0 0 0 - - -;
#X text 947 -342 THE BRAAIN;
#X obj 1062 -293 pow 0;
#X floatatom 1061 -209 5 0 0 0 - - -;
#X obj 649 4 + 3;
#X obj 665 28 +;
#X obj 700 -266 moses 89;
#X obj 240 71 * 500;
#X obj 1133 -87 noise~;
#X obj 1137 -27 *~;
#X obj 1218 -65 line~;
#X obj 1137 43 *~ 0;
#X obj 1224 109 vsl 15 128 0 127 0 0 empty empty empty 0 -9 0 10 -262144
-1 -1 300 1;
#X obj 1128 99 dac~;
#X obj 1346 -19 tabwrite~ line;
#X obj 1236 -11 tabwrite~ noise;
#X obj 1342 45 tabwrite~ noise_and_line;
#X obj 1119 8 lop~ 400;
#X floatatom 1174 -19 5 0 0 0 - - -;
#X msg 1219 -108 1 \, 0 90;
#X obj 920 207 *~ 9;
#X text 937 -76 Kick;
#X text 764 -126 comment;
#X text 1223 -142 Snare;
#X text 751 28 Chord RH;
#X obj 358 -197 notein 1;
#X obj 829 52 - 80;
#X connect 1 0 4 0;
#X connect 2 0 11 0;
#X connect 3 0 0 0;
#X connect 3 0 0 1;
#X connect 4 0 5 0;
#X connect 4 1 17 0;
#X connect 5 0 9 0;
#X connect 6 0 14 0;
#X connect 7 0 58 0;
#X connect 8 0 13 0;
#X connect 9 0 7 0;
#X connect 9 1 8 0;
#X connect 10 0 75 0;
#X connect 11 0 3 0;
#X connect 12 0 11 1;
#X connect 13 0 10 0;
#X connect 14 0 15 0;
#X connect 15 0 16 0;
#X connect 16 0 2 0;
#X connect 17 0 6 0;
#X connect 17 1 18 0;
#X connect 18 0 30 0;
#X connect 18 1 74 0;
#X connect 19 0 24 0;
#X connect 19 0 26 0;
#X connect 24 0 25 0;
#X connect 24 1 23 0;
#X connect 25 0 53 0;
#X connect 26 0 27 0;
#X connect 26 1 28 0;
#X connect 27 0 87 0;
#X connect 29 0 94 0;
#X connect 30 0 31 0;
#X connect 30 0 37 0;
#X connect 30 0 72 0;
#X connect 31 0 32 0;
#X connect 32 0 38 0;
#X connect 33 0 34 0;
#X connect 34 0 40 0;
#X connect 35 0 36 0;
#X connect 36 0 39 0;
#X connect 37 0 35 0;
#X connect 38 0 60 0;
#X connect 39 0 62 0;
#X connect 40 0 61 0;
#X connect 41 0 42 0;
#X connect 41 0 42 1;
#X connect 42 0 43 0;
#X connect 42 0 43 1;
#X connect 43 0 46 1;
#X connect 43 0 48 0;
#X connect 44 0 41 0;
#X connect 45 0 52 0;
#X connect 46 0 88 0;
#X connect 47 0 46 0;
#X connect 48 0 49 0;
#X connect 49 0 47 0;
#X connect 50 0 51 1;
#X connect 50 1 48 1;
#X connect 51 0 41 0;
#X connect 52 0 51 0;
#X connect 53 0 45 0;
#X connect 53 1 44 0;
#X connect 53 2 50 0;
#X connect 58 0 3 1;
#X connect 59 0 60 1;
#X connect 59 0 61 1;
#X connect 59 0 62 1;
#X connect 60 0 0 0;
#X connect 60 0 0 1;
#X connect 61 0 0 0;
#X connect 61 0 0 1;
#X connect 62 0 0 0;
#X connect 62 0 0 1;
#X connect 64 0 65 0;
#X connect 65 0 66 0;
#X connect 66 0 67 0;
#X connect 67 0 68 0;
#X connect 68 0 70 0;
#X connect 70 0 71 0;
#X connect 71 0 73 1;
#X connect 72 0 73 0;
#X connect 73 0 33 0;
#X connect 74 0 19 0;
#X connect 74 1 29 0;
#X connect 75 0 12 0;
#X connect 76 0 77 0;
#X connect 76 0 83 0;
#X connect 77 0 85 0;
#X connect 78 0 77 1;
#X connect 78 0 82 0;
#X connect 79 0 81 0;
#X connect 79 0 81 1;
#X connect 80 0 79 1;
#X connect 85 0 79 0;
#X connect 85 0 84 0;
#X connect 86 0 85 1;
#X connect 87 0 78 0;
#X connect 88 0 0 1;
#X connect 88 0 0 0;
#X connect 93 0 1 0;
#X connect 94 0 59 0;
